<svg id="Layer_1" data-name="Layer 1" xmlns="http://www.w3.org/2000/svg" viewBox="0 0 7000 7000"><defs><style>.cls-1{fill:#fff;}.cls-2{fill:#ccc;}.cls-3{fill:#f43737;}.cls-4{fill:#c42626;}</style></defs><path class="cls-1" d="M5328.25,1925.29V5537.47c0,136.65-110.78,247.43-247.43,247.43H1684.59c-136.65,0-247.43-110.78-247.43-247.43V1034.93c0-136.65,110.78-247.43,247.43-247.43H4198Z"/><path class="cls-2" d="M5328.25,1925.29H4440.84c-134.14,0-242.87-108.74-242.87-242.87V787.5Z"/><path class="cls-3" d="M1437.16,1669.11v1.27c-180,15.14-321.44,166-321.44,350V3085.44h321.44v-350H3816.64a97.15,97.15,0,0,0,97.15-97.15V1766.26a97.15,97.15,0,0,0-97.15-97.15Z"/><path class="cls-4" d="M1437.16,2735.46c-180,15.13-321.44,166-321.44,350s141.41,334.85,321.44,350Z"/><rect class="cls-2" x="2346.52" y="3286.2" width="2072.37" height="166.41" rx="83.21"/><rect class="cls-2" x="2346.52" y="3806.24" width="2072.37" height="166.41" rx="83.21"/><rect class="cls-2" x="2346.52" y="4326.29" width="1407.42" height="166.41" rx="83.21"/><circle class="cls-3" cx="4826.66" cy="5154.88" r="1057.62"/><polygon class="cls-1" points="5083.61 5079.69 5083.61 4567.27 4569.71 4567.27 4569.71 5079.69 4214.97 5079.69 4826.66 5869.18 5438.35 5079.69 5083.61 5079.69"/><path class="cls-1" d="M2281.66,1877.75q-22-18-73-18h-424l-143,677h152l46-218h272q65,0,96-29t44-89l47-223c1.33-8.65,2.5-16.5,3.5-23.5a144.86,144.86,0,0,0,1.5-20.5Q2303.66,1895.76,2281.66,1877.75Zm-139,146-29,133q-5,23-12.5,31t-26.5,8h-209l43-204h209q14,0,20.5,3.5c4.33,2.35,6.5,7.17,6.5,14.5C2144.66,2012.42,2144,2017.1,2142.66,2023.75Z"/><path class="cls-1" d="M2810.66,1859.75h-391l-143,677h391q90,0,143-44t71-129l71-331a253.17,253.17,0,0,0,6-53Q2958.66,1859.75,2810.66,1859.75Zm-16,198-60,282q-14,65-67,65h-213l87-412h213q43,0,43,42A94.71,94.71,0,0,1,2794.66,2057.75Z"/><polygon class="cls-1" points="3567.65 1992.75 3595.65 1859.75 3094.65 1859.75 2951.65 2536.75 3108.65 2536.75 3165.65 2267.75 3420.65 2267.75 3444.65 2154.75 3189.65 2154.75 3223.69 1992.75 3567.65 1992.75"/></svg>