<?xml version="1.0" encoding="iso-8859-1"?>
<!-- Generator: Adobe Illustrator 19.0.0, SVG Export Plug-In . SVG Version: 6.00 Build 0)  -->
<svg version="1.1" id="Capa_1" 
  xmlns="http://www.w3.org/2000/svg" 
  xmlns:xlink="http://www.w3.org/1999/xlink" x="0px" y="0px" viewBox="0 0 512 512" width="87" height="87" style="enable-background:new 0 0 512 512;" xml:space="preserve">
  <path style="fill:#FFE13C;" d="M512,256c0,141.385-114.615,256-256,256C115.952,512,2.191,399.538,0.051,260H250
	c5.523,0,10-4.477,10-10V0.051C399.538,2.191,512,115.952,512,256z"/>
  <path style="fill:#F2C230;" d="M450,423.029c-8.311,9.644-17.327,18.661-26.971,26.971H88.971
	C69.077,432.856,51.857,412.701,38,390.248V186c0-3.314,2.686-6,6-6h400c3.314,0,6,2.686,6,6V423.029z"/>
  <path style="fill:#F5F0EB;" d="M506,380H106c-3.314,0-6-2.686-6-6V116c0-3.314,2.686-6,6-6h400c3.314,0,6,2.686,6,6v258
	C512,377.314,509.314,380,506,380z"/>
  <path style="fill:#B4EBFF;" d="M230,300c0,22.091-17.909,40-40,40s-40-17.909-40-40s17.909-40,40-40S230,277.909,230,300z"/>
  <path style="fill:#46A5CD;" d="M340,300c0,22.091-17.909,40-40,40s-40-17.909-40-40s17.909-40,40-40S340,277.909,340,300z"/>
  <path style="fill:#46738C;" d="M450,300c0,22.091-17.909,40-40,40s-40-17.909-40-40s17.909-40,40-40S450,277.909,450,300z"/>
  <path style="fill:#FFE13C;" d="M340,190c0,22.091-17.909,40-40,40s-40-17.909-40-40s17.909-40,40-40S340,167.909,340,190z"/>
  <path style="fill:#82CD64;" d="M450,190c0,22.091-17.909,40-40,40s-40-17.909-40-40s17.909-40,40-40S450,167.909,450,190z"/>
  <path style="fill:#E6FAFF;" d="M256,0c5.844,0,11.638,0.214,17.385,0.6C277.239,1.989,280,5.667,280,10v260c0,5.523-4.477,10-10,10
	H10c-4.333,0-8.011-2.761-9.4-6.615C0.214,267.638,0,261.844,0,256C0,114.615,114.615,0,256,0z"/>
  <path style="fill:#B4EBFF;" d="M224,224H56V96.212C67.875,81.367,81.367,67.876,96.212,56H224V224z"/>
  <path style="fill:#46A5CD;" d="M224,160v52H56v-52H224z"/>
  <path style="fill:#64A54B;" d="M224,192v32H56v-32h19.207l35.834-49.272c2.504-3.443,7.397-4.051,10.667-1.326l28.667,23.889V192
	H224z"/>
  <path style="fill:#FFF573;" d="M103.966,50.03C113.757,58.1,120,70.321,120,84c0,24.301-19.699,44-44,44
	c-12.966,0-24.62-5.611-32.673-14.534C59.759,88.997,80.302,67.526,103.966,50.03z"/>
  <path style="fill:#FFE13C;" d="M84.522,65.927C91.299,69.129,96,76.007,96,84c0,11.046-8.954,20-20,20
	c-7.673,0-14.328-4.325-17.682-10.666C66.367,83.563,75.131,74.404,84.522,65.927z"/>
  <path style="fill:#78BE5A;" d="M224,147.449V200v24H56v-24h45.382l64.564-88.776c2.979-4.096,8.8-4.819,12.69-1.577L224,147.449z"/>
  <path style="fill:#4BB9E1;" d="M224,200v24H56v-24H224z"/>
  <g>
  </g>
  <g>
  </g>
  <g>
  </g>
  <g>
  </g>
  <g>
  </g>
  <g>
  </g>
  <g>
  </g>
  <g>
  </g>
  <g>
  </g>
  <g>
  </g>
  <g>
  </g>
  <g>
  </g>
  <g>
  </g>
  <g>
  </g>
  <g>
  </g>
</svg>