<svg xmlns="http://www.w3.org/2000/svg" xmlns:xlink="http://www.w3.org/1999/xlink" viewBox="0 0 7000 4000"><defs><style>.cls-1{fill:#3e68b0;}.cls-2,.cls-9{opacity:0.2;}.cls-2{fill:url(#linear-gradient);}.cls-12,.cls-3{fill:#fff;}.cls-3{opacity:0.5;}.cls-4{fill:#fffcf5;}.cls-20,.cls-5,.cls-9{fill:#12100b;}.cls-5{opacity:0.05;}.cls-6{fill:#d34f52;}.cls-7{fill:#ea565b;}.cls-8{fill:#a84041;}.cls-10{fill:#579432;}.cls-11,.cls-43,.cls-44,.cls-45{opacity:0.3;}.cls-13{fill:#47732d;}.cls-14{fill:#73b72b;}.cls-15{fill:#5c9832;}.cls-16{fill:#da9307;}.cls-17{fill:#f9b100;}.cls-18{fill:#88be3e;}.cls-19{fill:#9a5d19;}.cls-20{opacity:0.1;}.cls-21{fill:#272421;}.cls-22{fill:#234061;}.cls-23{fill:#f6e6d7;}.cls-24{fill:#f8ecd7;}.cls-25{fill:#e8d5c3;}.cls-26{fill:#423e3c;}.cls-27{fill:#f1851e;}.cls-28{fill:#eaeff7;}.cls-29{fill:#203260;}.cls-30{fill:#7b3311;}.cls-31{fill:#8c3b14;}.cls-32{fill:#763811;}.cls-33{fill:#8c1f6b;}.cls-34{fill:#132c3b;}.cls-35{fill:#f04d44;}.cls-36{fill:#f6e9d6;}.cls-37{fill:#302c26;}.cls-38{fill:#fff4e0;}.cls-39{fill:#f19c9d;}.cls-40{fill:#23201d;}.cls-41{fill:#e8e7e8;}.cls-42{fill:#c6c3c2;}.cls-43{fill:url(#linear-gradient-2);}.cls-44{fill:url(#linear-gradient-3);}.cls-45{fill:url(#linear-gradient-4);}</style><linearGradient id="linear-gradient" x1="3499.47" y1="3801.57" x2="3504.46" y2="392.74" gradientUnits="userSpaceOnUse"><stop offset="0" stop-color="#fff" stop-opacity="0"/><stop offset="0.09" stop-color="#fff" stop-opacity="0.05"/><stop offset="0.26" stop-color="#fff" stop-opacity="0.19"/><stop offset="0.48" stop-color="#fff" stop-opacity="0.41"/><stop offset="0.75" stop-color="#fff" stop-opacity="0.7"/><stop offset="1" stop-color="#fff"/></linearGradient><linearGradient id="linear-gradient-2" x1="2418.65" y1="2534.07" x2="2427.96" y2="2240.64" gradientUnits="userSpaceOnUse"><stop offset="0" stop-color="#fff" stop-opacity="0"/><stop offset="0.09" stop-color="#fffef7" stop-opacity="0.04"/><stop offset="0.24" stop-color="#fffce1" stop-opacity="0.16"/><stop offset="0.43" stop-color="#fff8be" stop-opacity="0.34"/><stop offset="0.67" stop-color="#fff38d" stop-opacity="0.6"/><stop offset="0.94" stop-color="#ffed4f" stop-opacity="0.92"/><stop offset="1" stop-color="#ffeb3f"/></linearGradient><linearGradient id="linear-gradient-3" x1="3509.47" y1="2534.07" x2="3518.79" y2="2240.64" xlink:href="#linear-gradient-2"/><linearGradient id="linear-gradient-4" x1="4571.18" y1="2534.07" x2="4580.5" y2="2240.64" xlink:href="#linear-gradient-2"/></defs><g id="Layer_2" data-name="Layer 2"><rect class="cls-1" width="7000" height="4000"/></g><g id="Objects"><path class="cls-2" d="M5878.85,3436.45c-231.23,19.58-1235.7,34.32-2439.81,34.32-1053.51,0-1954.21-11.28-2317.89-27.22.28-10.48,1-21,1-31.47,0-2007.89,1095.7-2802.75,2377.9-2802.75,1284.56,0,2378.19,830.64,2378.19,2809.84C5878.28,3424.94,5878.68,3430.69,5878.85,3436.45Z"/><path class="cls-3" d="M1143.84,523.76a119,119,0,0,0-182.1-84.09,164.86,164.86,0,0,0-284.47-17.75,79.66,79.66,0,0,0-90.68,95.41c-47,7-83.39,47.82-83.39,96.71h0c0,53.77,44,97.77,97.77,97.77h505.45c53.77,0,97.77-44,97.77-97.77h0A98.12,98.12,0,0,0,1143.84,523.76Z"/><path class="cls-3" d="M6603.79,1003.89H6601c0-.62,0-1.23,0-1.85a109.81,109.81,0,0,0-206.71-51.65,59.1,59.1,0,0,0-77,25.38,58.82,58.82,0,1,0-50.67,105.91,60.33,60.33,0,0,0,59.62,52.47h277.51a60.29,60.29,0,0,0,60.1-60.11v-10A60.28,60.28,0,0,0,6603.79,1003.89Z"/><path class="cls-3" d="M4184.64,470.24H3751.53a59.89,59.89,0,0,1,80.64-83,60.16,60.16,0,0,1,78.4-25.85A111.81,111.81,0,0,1,4121,414c0,.62,0,1.25,0,1.88h2.8A61.39,61.39,0,0,1,4184.64,470.24Z"/><path class="cls-4" d="M1375.35,2399.3c6.94,18-12.07,34-12.07,34l-126,48.65c-52.5,20.27-172.84-318.13-172.84-318.13l135-52.13q4.08,17.49,8.87,33.65C1260.53,2322.54,1368.79,2382.33,1375.35,2399.3Z"/><path class="cls-5" d="M1139.44,2218.73c2.14,150.77,81.51,221.38,123.39,253.32l-25.53,9.86c-52.5,20.27-172.84-318.13-172.84-318.13l135-52.13q4.08,17.49,8.87,33.65C1142.9,2182.45,1139.08,2193.56,1139.44,2218.73Z"/><path class="cls-4" d="M1876.18,1652.6l24.37,63.09a23.73,23.73,0,0,1-13.55,30.6l-92.3,55.1a23.73,23.73,0,0,1-30.6-13.55l-39.43-102.1a23.73,23.73,0,0,1,13.55-30.6l107.36-16.09A23.72,23.72,0,0,1,1876.18,1652.6Z"/><path class="cls-5" d="M1898.33,1709.94l2.22,5.75a23.73,23.73,0,0,1-13.55,30.6l-92.3,55.1a23.73,23.73,0,0,1-30.6-13.55l-.77-2C1805.87,1771.59,1855.49,1748.18,1898.33,1709.94Z"/><path class="cls-6" d="M1115.29,1998.25q2,5.19,3.47,10.45a114,114,0,0,1,2.14,52.89,115,115,0,0,1-114,93,115,115,0,1,1,103.95-166.39C1112.47,1991.44,1114,1994.8,1115.29,1998.25Z"/><path class="cls-7" d="M1181.22,1854.74l79.35,205.47a26.07,26.07,0,0,1-14.88,33.59l-204,78.78a26,26,0,0,1-33.58-14.87l-79.35-205.47a26,26,0,0,1,14.87-33.58l204-78.79A26.05,26.05,0,0,1,1181.22,1854.74Z"/><path class="cls-4" d="M1147.63,1839.87s371.76-278.88,448.2-451.51l142.6,369.25-541.77,209.22Z"/><path class="cls-4" d="M1738.43,1757.61,1881,2126.87c-172.64-76.45-635.34-33.07-635.34-33.07l-49-127Z"/><path class="cls-7" d="M1682.29,1423.43l239.18,619.36a64,64,0,0,1-36.56,82.58l-3.88,1.5-285.2-738.51,3.88-1.5A64.05,64.05,0,0,1,1682.29,1423.43Z"/><rect class="cls-8" x="997.46" y="1952.99" width="134.95" height="21.97" rx="10.98" transform="translate(-636.01 515.51) rotate(-21.12)"/><rect class="cls-8" x="1015.51" y="1999.74" width="134.95" height="21.97" rx="10.98" transform="translate(-651.64 525.15) rotate(-21.12)"/><rect class="cls-8" x="1033.57" y="2046.5" width="134.95" height="21.97" rx="10.98" transform="translate(-667.28 534.8) rotate(-21.12)"/><path class="cls-5" d="M1880.07,1935.59l41.4,107.2a64,64,0,0,1-36.56,82.58l-3.88,1.5c-172.64-76.45-635.34-33.07-635.34-33.07l-204,78.78a26,26,0,0,1-33.58-14.87l-1.21-3.12a113.92,113.92,0,0,1-28.68-4q11.19-5,23.21-10.2c31.55-13.7,67.22-28.47,106.36-43.58,37.67-14.55,78.56-29.41,122.11-44q12.22-4.07,24.72-8.11c160.15-51.76,353.33-97.64,553.27-107.32Q1843.85,1935.73,1880.07,1935.59Z"/><path class="cls-9" d="M6415.61,3105.67c0,6.23-20.2,12.32-58.66,18.21-270.75,41.4-1447,72.56-2856.95,72.56-1233.64,0-2288.33-23.85-2714.19-57.55-130-10.29-201.42-21.49-201.42-33.22s71.86-23,202.63-33.31c426.65-33.66,1480.52-57.47,2713-57.47,1408.82,0,2584.26,31.1,2856.29,72.46C6395.18,3093.28,6415.61,3099.39,6415.61,3105.67Z"/><path class="cls-10" d="M832.48,2644.68c-15.78,8.24-70.74,70.12-76.72,20.6s31-37,31-37c54.41,14.69,94.13-44.61,94.13-44.61.35-11-3.82-25-9.69-39-.43-1-.87-2.09-1.33-3.12-12.74-29.21-32-57.45-32-57.45-22.31,41.9-117,115.9-126.24,93.59s15.79-29.93,15.79-29.93c88.14-18.5,91.4-83.24,91.4-83.24-1.64-4.34-4.87-9-9.1-13.69-.73-.81-1.49-1.62-2.26-2.44-23.31-24.16-70.79-49.71-70.79-49.71-3.26,48.43-37,72.92-37,72.92-58.21,3.26-27.2-33.2-27.2-33.2,45.16-12,41.35-56,41.35-56-3.17,0-7.62-1.72-12.72-4.49q-1.32-.71-2.7-1.53c-20.23-11.82-48.24-37-48.24-37-2.14,19.28-24.31,25.91-25,26.1,6-3.33,8.68-32.63,8.68-32.63a36.37,36.37,0,0,1-6.08-3.58c-.81-.58-1.68-1.2-2.56-1.87-14.18-10.71-35.47-32.49-45.09-42.55-3.14-3.29-5-5.32-5-5.32a9.29,9.29,0,0,1,.37,2.77,24.24,24.24,0,0,1-.89,5.93c-3.53,13.84-16.92,36.84-27.42,53.53-.61,1-1.23,2-1.83,2.9-6.55,10.31-11.57,17.57-11.57,17.57,16.87,42.43,88.68,28.84,58.21,65.66s-74-41.72-74-41.72c.84,4.86-4.11,14.57-11.35,25.69-.62,1-1.26,1.92-1.92,2.89-5.31,7.9-11.6,16.35-17.67,24.17l-2,2.58c-12,15.19-22.55,27.37-22.55,27.37s5.44,45.16,69.64,60.39,55,27.76,55,27.76c-63.11,27.2-129.5-70.74-129.5-70.74-13.13,14.25-23.71,33-32,51.86-.47,1-.92,2.09-1.36,3.14a408.28,408.28,0,0,0-23.21,74.8c60.4,83,94.13,40.51,123.5,40.51s44.08,8.7,44.08,16.86-7.07,35.37-64.2,35.37-108.28-58.22-108.28-58.22c5,31.72,11.29,58.8,18.51,81.82.37,1.15.73,2.31,1.1,3.45,68.87,213,221.83,68,241.61,48,1.39-1.4,2.13-2.18,2.13-2.18a30.07,30.07,0,0,0,.95,4.76h0a42.22,42.22,0,0,0,2.83,7.43s0,0,0,0a45.07,45.07,0,0,0,21.24,21c56.71,27.78,192.07-9.79,186.08-76.83a175.59,175.59,0,0,1,.51-35.41c.13-1.16.27-2.31.42-3.44,6.34-48.18,29.54-83.16,29.54-83.16S848.25,2636.44,832.48,2644.68Zm-102.29,21c-2.66,5.09-12.13,5.37-21.15.64s-14.15-12.67-11.49-17.75,12.13-5.37,21.15-.64S732.85,2660.62,730.19,2665.69Zm-107.76-9.94c-13.14,6.53-27,5.31-31-2.71s3.45-19.83,16.61-26.34,27-5.32,31,2.71S635.58,2649.23,622.43,2655.75ZM610,2557.15c-.47-5.26,8.15-10.33,19.26-11.31s20.48,2.48,20.94,7.74-8.14,10.32-19.25,11.3S610.45,2562.41,610,2557.15Zm123.1-106.52c4.21-10.32,11.6-17.05,16.51-15.05s5.46,12,1.25,22.31-11.61,17.06-16.51,15.05S728.87,2461,733.08,2450.63Zm-155.34,331c-20.79,8.51-40.28,9-43.52,1.08s11-21.26,31.78-29.77,40.28-9,43.52-1.08S598.55,2773.08,577.74,2781.6Zm172.74-39.44c-2,8.73-13.13,13.62-24.8,10.92s-19.52-11.95-17.51-20.68,13.12-13.62,24.8-10.92S752.49,2733.43,750.48,2742.16Z"/><g class="cls-11"><path class="cls-12" d="M871.49,2699.23c-.15,1.13-.29,2.28-.42,3.44-61.53,15.38-108.17,13.33-139,7.69-33.81-6.2-54.43-17.36-62.57-22.51-1.26-.8-2.22-1.45-2.89-1.93-1.2,1.1-2.41,2.19-3.64,3.25-21.16,18.34-47.7,32.07-79,40.86-26.85,7.53-57.24,11.47-90.34,11.7h-3a497.46,497.46,0,0,1-74.87-5.88c-.37-1.14-.73-2.3-1.1-3.45a492.94,492.94,0,0,0,79.05,6.09c50.71-.36,120.93-10.07,169.53-53.82.74-.67,1.47-1.34,2.19-2l1-.94,1.09.84s.78.6,2.22,1.53c6.55,4.32,27.67,16.66,63.21,23.13C763.57,2712.8,810.05,2714.77,871.49,2699.23Z"/></g><g class="cls-11"><path class="cls-12" d="M871.21,2544.66a338.84,338.84,0,0,1-51.55,34.08c-26.73,14.17-53.52,23-79.61,26.13-35.23,4.27-59.32-2.78-68.41-6.2-1.59-.6-2.74-1.08-3.38-1.37l-3.08,1a243.3,243.3,0,0,1-75.06,12.25,219.05,219.05,0,0,1-32.59-2.42c-29-4.33-57.36-14.47-84.23-30.17a278,278,0,0,1-49.08-36.71c.44-1.05.89-2.09,1.36-3.14A275.1,275.1,0,0,0,475,2575.24c41.17,24,107.39,46.78,190.06,19.71l2.74-.92.62-.21.61.29s.89.43,2.51,1c7.62,3,32.24,10.88,68.33,6.47,31.48-3.86,77-18,130-60.09C870.34,2542.57,870.78,2543.61,871.21,2544.66Z"/></g><g class="cls-11"><path class="cls-12" d="M809.77,2450.82a192.49,192.49,0,0,1-21.65,21.07,168.88,168.88,0,0,1-108.32,39.3,145.06,145.06,0,0,1-19.25-1.21c-2.15-.3-3.51-.56-4-.65l-2.82,0c-68.93-1.56-115.91-25.65-143.29-45.75a204.79,204.79,0,0,1-25.44-22l2-2.58A200.62,200.62,0,0,0,512.52,2461c26.89,19.7,72.93,43.29,140.47,45l3.79.07.32.05s1,.2,2.66.46c8.15,1.22,34.18,3.94,65.52-5,23.89-6.82,54.33-21.59,82.23-53.22C808.28,2449.2,809,2450,809.77,2450.82Z"/></g><g class="cls-11"><path class="cls-12" d="M701.14,2377.86a83.72,83.72,0,0,1-30.84,33.82,91,91,0,0,1-34.86,12.58c-1.33.17-2.35.27-3,.31-.89,1-1.8,2-2.72,3-16,17-33.65,25.56-52.43,25.56-1.35,0-2.71,0-4.07-.14-27.77-1.81-52.35-21.43-68.53-38.22.66-1,1.3-1.93,1.92-2.89,15.87,16.54,40.08,36.14,66.83,37.89,19.74,1.28,38.27-7.35,55.09-25.67.65-.69,1.28-1.41,1.92-2.14l.45-.51.69,0s1-.05,2.75-.26a88.91,88.91,0,0,0,34.36-12.26,79.82,79.82,0,0,0,29.71-32.53Q699.82,2377.16,701.14,2377.86Z"/></g><g class="cls-11"><path class="cls-12" d="M627.8,2329.26A73.29,73.29,0,0,1,605.33,2344c-1.4.58-2.4.92-2.84,1.08a26.91,26.91,0,0,1-3,1.77c-5.86,3.13-12.77,4.43-20.18,4.43-10.79,0-22.66-2.74-34-6.58.6-.94,1.22-1.91,1.83-2.9,18.42,6.16,37.94,9.27,51.14,2.05a28.65,28.65,0,0,0,2.53-1.56l.22-.16.23-.07s1.08-.33,2.83-1.05a69.6,69.6,0,0,0,18.47-11.2c.92-.78,1.8-1.57,2.65-2.37C626.12,2328.06,627,2328.68,627.8,2329.26Z"/></g><path class="cls-13" d="M669.7,2684.09c-.06,1.26-.12,2.51-.19,3.76-1,20.47-2.32,40.94-3.55,60.54-1,15.52-1.93,30.85-2.72,45.53,0,0,0,0,0,0-2.81,51.36-3.71,94.92,3.48,111.61l-5.94,2.56c-8.2-19.07-6.81-66.39-3.45-124.22.67-11.59,1.43-23.61,2.19-35.91,1.19-19,2.43-38.94,3.46-58.82.07-1.5.15-3,.22-4.49,1.5-29.87,2.46-59.59,2-86.36,0-1.13-.06-2.25-.08-3.37-.16-7.07-.43-13.92-.82-20.49-1.16-19.65-5-41.9-10.51-65.18-.25-1.09-.51-2.16-.78-3.25-6.21-25.7-14.4-52.54-23.24-78.49-.39-1.16-.79-2.32-1.19-3.47-9.54-27.77-19.76-54.37-29-77.27-.41-1-.81-2-1.22-3-9.69-23.79-18.23-43.31-23.72-55.58a24.24,24.24,0,0,0,.89-5.93,9.29,9.29,0,0,0-.37-2.77s1.9,2,5,5.32c5.47,12.2,14.13,31.95,24,56.12.4,1,.81,2,1.21,3,9.26,22.85,19.47,49.4,29,77.17.35,1,.71,2.08,1.07,3.14,9.28,27.18,17.89,55.42,24.32,82.35.27,1.13.54,2.25.79,3.37,5.34,22.86,9,44.72,10.19,64.1.39,6.77.67,13.81.84,21.08l.06,3.51C672.1,2625.23,671.17,2654.6,669.7,2684.09Z"/><path class="cls-14" d="M533.84,2570.7s16.58,38.56,14.24,87.09c-.06,1.14-.13,2.3-.2,3.46a175.34,175.34,0,0,1-5.82,34.93c-17.85,64.9,108.65,126,169.4,108.78a45,45,0,0,0,24.64-16.84s0,0,0,0a42.19,42.19,0,0,0,4.1-6.81h0a30.08,30.08,0,0,0,1.79-4.51s.58.9,1.7,2.53c15.91,23.14,140.57,193.08,246.31-4.2.57-1.06,1.13-2.13,1.7-3.2,11.21-21.36,22.19-46.9,32.8-77.21,0,0-60.71,48.17-116.92,38s-58.32-38.21-56.87-46.25,17.46-14,46.38-8.73,54.52,53.06,128.74-17.83a407.88,407.88,0,0,0-9.49-77.75q-.37-1.67-.78-3.33c-4.82-20-11.88-40.37-22.26-56.74,0,0-82.78,84.54-140,46.52,0,0-6.86-14,59-17.51s79.29-47,79.29-47-8.26-13.88-17.3-30.95l-1.52-2.9c-4.58-8.77-9.26-18.21-13.08-26.93-.47-1.08-.93-2.13-1.37-3.19-5.14-12.23-8.28-22.67-6.58-27.3,0,0-56.84,69.52-80.26,27.86s44.83-15.48,69-54.23c0,0-3.65-8-8.26-19.35-.42-1-.85-2.1-1.28-3.18-7.36-18.29-16.44-43.31-17.44-57.56a24.4,24.4,0,0,1,.18-6,9.41,9.41,0,0,1,.86-2.67s-2.23,1.66-5.9,4.34c-11.26,8.18-36.1,25.82-52,33.83-1,.5-1.95,1-2.86,1.39a36.4,36.4,0,0,1-6.62,2.43s-2.56,29.32,2.73,33.66c-.64-.31-21.28-10.79-19.95-30.14,0,0-32,19.74-54.06,27.76-1,.38-2,.72-2.92,1-5.52,1.81-10.2,2.72-13.32,2.15,0,0-11.61,42.69,30.69,62.52,0,0,24,41.4-32.68,27.81,0,0-28.84-30.11-23.41-78.35,0,0-51.27,16.67-78.52,36.29-.91.67-1.8,1.33-2.66,2-5,3.88-9,7.87-11.4,11.84,0,0-8.33,64.29,75.1,98.21,0,0,23.27,12,10.19,32.26s-93-69.39-107.52-114.59c0,0-24,24.36-41.7,50.82-.63.94-1.25,1.89-1.86,2.84-8.27,12.72-14.87,25.76-16.49,36.65,0,0,28.51,65.44,84.67,60.69,0,0,38.63-5.72,23.92,41.94s-57.76-23-71.82-34S533.84,2570.7,533.84,2570.7Zm173.73,63.87c9.71-3.05,19-1.07,20.69,4.39s-4.76,12.38-14.48,15.42-19,1.09-20.69-4.39S697.86,2637.62,707.57,2634.57Zm81.69-4c5.34-7.19,19.22-5.91,31,2.86s17,21.69,11.64,28.88-19.23,5.91-31-2.86S783.91,2637.73,789.26,2630.54Zm19.48-62.05c-10.76-2.95-18.34-9.46-16.93-14.55s11.24-6.83,22-3.88,18.34,9.46,16.94,14.55S819.49,2571.44,808.74,2568.49Zm-85.35-108.9c-5.18,1.1-11.26-6.86-13.57-17.75s0-20.64,5.21-21.73,11.26,6.84,13.56,17.75S728.57,2458.49,723.39,2459.59Zm73.07,296.67c4.61-7.21,23.7-3.27,42.64,8.82s30.57,27.74,26,35-23.69,3.26-42.63-8.82S791.86,2763.48,796.46,2756.26Zm-116.05-51.88c12-.57,22,6.23,22.45,15.17s-8.94,16.67-20.91,17.23-22-6.22-22.46-15.17S668.43,2705,680.41,2704.38Z"/><g class="cls-11"><path class="cls-12" d="M548.08,2657.79c-.06,1.14-.13,2.3-.2,3.46,57.79,26.11,104.06,32.41,135.39,32.35,34.37-.07,56.65-7.37,65.58-11q2.07-.86,3.18-1.38,1.49,2,3,3.84c17.55,21.83,41.22,40.06,70.47,54.3,25.07,12.19,54.27,21.49,86.81,27.62l3,.55A498.52,498.52,0,0,0,990,2775.1c.57-1.06,1.13-2.13,1.7-3.2a492.16,492.16,0,0,1-78.87-8.1c-49.83-9.39-117.2-31.46-157.22-83.19-.6-.79-1.21-1.58-1.8-2.37l-.81-1.1-1.22.63s-.87.44-2.46,1.11c-7.22,3.08-30.19,11.45-66.32,11.49C651.85,2690.39,605.76,2684,548.08,2657.79Z"/></g><g class="cls-11"><path class="cls-12" d="M575.91,2505.75a339.24,339.24,0,0,0,44.65,42.73c23.77,18.71,48.57,32.13,73.68,39.9,33.9,10.48,58.86,7.84,68.41,6.1,1.68-.31,2.89-.58,3.58-.75l2.85,1.56a243.2,243.2,0,0,0,71.66,25.43,219.58,219.58,0,0,0,32.5,3.44c29.34.91,59-4,88.26-14.68a277.43,277.43,0,0,0,54.85-27.37q-.37-1.67-.78-3.33a275.25,275.25,0,0,1-55.3,27.7c-44.78,16.31-114,26.88-190.52-14.5l-2.53-1.39-.57-.32-.65.18s-1,.26-2.66.59c-8,1.55-33.67,5-68.39-5.82-30.29-9.41-72.53-31.44-117.18-82.31C577.14,2503.85,576.52,2504.8,575.91,2505.75Z"/></g><g class="cls-11"><path class="cls-12" d="M653.1,2424.37A192,192,0,0,0,670.65,2449a168.9,168.9,0,0,0,99.58,58,144.57,144.57,0,0,0,19.14,2.25c2.18.08,3.56.07,4,.07l2.79.45c68.1,10.75,118.62-4.57,149.15-19.47a204.63,204.63,0,0,0,29-17.15l-1.52-2.9a200.74,200.74,0,0,1-29,17.21c-30,14.6-79.47,29.6-146.24,19.25l-3.74-.61h-.32c-.05,0-1,0-2.7,0-8.24-.25-34.34-2.21-63.58-16.61-22.29-11-49.61-30.93-71.42-67C654.85,2423,654,2423.7,653.1,2424.37Z"/></g><g class="cls-11"><path class="cls-12" d="M773,2372a83.69,83.69,0,0,0,24.31,38.77,91.08,91.08,0,0,0,32.06,18.6c1.28.41,2.26.68,2.87.84.7,1.15,1.41,2.29,2.14,3.39,12.77,19.57,28.56,31.16,47,34.51,1.34.24,2.68.44,4,.59,27.65,3.17,55.32-11.75,74.24-25.39-.47-1.08-.93-2.13-1.37-3.19-18.57,13.44-45.88,28.42-72.51,25.37-19.66-2.26-36.35-14.06-49.63-35.09-.52-.79-1-1.61-1.51-2.44l-.35-.59-.68-.15s-1-.24-2.65-.75a88.65,88.65,0,0,1-31.63-18.2,79.75,79.75,0,0,1-23.44-37.3C774.92,2371.3,773.94,2371.64,773,2372Z"/></g><g class="cls-11"><path class="cls-12" d="M853.82,2337.21a73.59,73.59,0,0,0,19.49,18.45c1.28.82,2.2,1.34,2.61,1.57a29.66,29.66,0,0,0,2.6,2.28c5.21,4.12,11.77,6.63,19.06,7.95,10.62,1.92,22.78,1.35,34.64-.41-.42-1-.85-2.1-1.28-3.18-19.23,2.78-39,2.35-50.69-7.1a27.76,27.76,0,0,1-2.21-2l-.18-.19-.22-.12s-1-.52-2.59-1.53a69.36,69.36,0,0,1-16.19-14.32c-.76-.92-1.49-1.86-2.18-2.8C855.69,2336.32,854.73,2336.78,853.82,2337.21Z"/></g><path class="cls-15" d="M749.33,2678.88c-.16,1.25-.33,2.49-.48,3.73-2.63,20.33-5,40.7-7.31,60.2-1.81,15.45-3.6,30.7-5.43,45.29,0,0,0,0,0,0-6.39,51.05-13.28,94.06-23.32,109.21l5.38,3.57c11.47-17.3,18.54-64.1,25.54-121.6,1.41-11.53,2.81-23.49,4.25-35.74,2.23-18.95,4.55-38.74,7.09-58.49.19-1.49.38-3,.58-4.46,3.85-29.65,8.2-59.07,13.46-85.32.23-1.11.45-2.21.67-3.31,1.42-6.92,2.91-13.62,4.46-20,4.65-19.13,12.39-40.34,22-62.26.43-1,.88-2,1.34-3.06,10.7-24.18,23.54-49.13,36.86-73.1l1.8-3.2c14.33-25.61,29.13-50,42.34-70.84.58-.93,1.15-1.84,1.73-2.74,13.77-21.68,25.66-39.37,33.25-50.46a24.4,24.4,0,0,1,.18-6,9.41,9.41,0,0,1,.86-2.67s-2.23,1.66-5.9,4.34c-7.56,11-19.61,28.92-33.59,51l-1.74,2.72c-13.17,20.84-28,45.14-42.32,70.76l-1.62,2.9c-14,25.09-27.48,51.34-38.61,76.69l-1.39,3.18c-9.32,21.54-16.85,42.39-21.44,61.25q-2.4,9.89-4.59,20.6l-.69,3.44C757.46,2620.53,753.15,2649.59,749.33,2678.88Z"/><path class="cls-16" d="M788.93,3103.14h-197a20.2,20.2,0,0,1-20.08-18L552.62,2909a20.18,20.18,0,0,1,20.08-22.38H808.13A20.2,20.2,0,0,1,828.21,2909L809,3085.13A20.19,20.19,0,0,1,788.93,3103.14Z"/><rect class="cls-17" x="528.2" y="2886.59" width="327.27" height="58.17" rx="14.47"/><path class="cls-18" d="M6439.6,2687.27c-.2,11.55-23.62,130.47-227.27,208,0,0,26.75-46,101.09-98.41,72.66-51.22,120.27-94.27,125.39-108.68a7.84,7.84,0,0,0,.29-.95C6439.4,2686,6439.63,2686.07,6439.6,2687.27Z"/><path class="cls-18" d="M6218.84,2910.43h0c-2-1-128.73-61.69-153.45-88.23-25.77-27.67-49.09-70.79-69.14-101.41-10.31-15.75-19.76-28.18-28.24-33.51-.47-.31-1-.6-1.44-.86C5971.5,2689,6130.93,2773.55,6218.84,2910.43Z"/><path class="cls-18" d="M6471.94,2586.63s-37.08,28.48-44.39,42.25c-13.91,26.2-60.6,56.86-113.92,80.75-32.95,14.76-50.1,26.74-103.73,94.63,0,0,.05-.08.08-.15,2.57-5,58.41-112.41,134.15-146.35,77.54-34.76,66.85-56.7,84.49-65.25S6471.94,2586.63,6471.94,2586.63Z"/><path class="cls-18" d="M6215.63,2831.75c-31.55-45.46-98.93-80.21-117.66-92s-42.78-40.65-63.1-74.34-91.46-47.06-91.46-47.06c66.86-17.11,122.48,18.71,135.85,40.1s39.57,49.74,77.54,77.55S6215.63,2831.75,6215.63,2831.75Z"/><path class="cls-18" d="M6465.5,2429.38c-1.6,36.37-35.82,117.12-106.95,150.81-70,33.16-140,101.58-142.21,103.7a.14.14,0,0,1,.06-.08c.76-.89,1.52-1.89,2.31-3,15.39-21.82,38.5-84.68,123.79-126.81C6432.36,2509.59,6465.5,2429.38,6465.5,2429.38Z"/><path class="cls-18" d="M5943,2485.14c-1.81-.2-2.78-.27-2.78-.27A11.65,11.65,0,0,1,5943,2485.14Z"/><path class="cls-18" d="M6218.84,2708.43s-29.94,16-138.25-106.29c-72.59-81.95-111.36-106.67-128.74-114.1l-.14-.07a45.48,45.48,0,0,0-8.68-2.83c17.52,2,112.36,16,160.3,94.93,52.89,87.09,95.64,116.54,115.46,128.33Z"/><path class="cls-18" d="M6417.79,2387.81s0,0,0,.06l-.08.16c-2.12,4.81-36.66,82.27-66.19,120.1-30.24,38.74-126.31,95.36-127.82,96.24.61-1.13,37.35-67.13,89.3-102.13S6417,2389,6417.79,2387.81Z"/><path class="cls-18" d="M6226.37,2615.56a.1.1,0,0,0-.07,0c-2.89-.49-96.2-16.75-164.11-109.41-69-94.13-35.31-101.62-91.46-159.37l.05,0c2.12,1.21,70.26,40.73,119.74,148.65C6090.52,2495.43,6125.83,2564,6226.37,2615.56Z"/><path class="cls-18" d="M6324.79,2434c-22.75,23-83.25,83.07-93.44,93.18v0l-.06,0-1.41,1.41s.05-.43.19-1.25c1.55-10.11,14.2-79.3,73.09-123.08,62.65-46.6,88.49-121.93,89.3-124.28a.15.15,0,0,0,0-.06C6394.07,2343.06,6349.67,2408.84,6324.79,2434Z"/><path class="cls-18" d="M6231.3,2539.84l-.12,0c-3.8-1.6-85.28-36.5-123.41-111.18-39-76.43-52.39-112.79-74.83-131h0c2.23,1.3,73.83,43.72,112.78,139,0,0,16.54,35.23,85.35,103Z"/><path class="cls-18" d="M6234.82,2452.36c-6-5.27-53.42-48.14-84.92-118.15-33.65-74.78-44.9-99.95-58.25-105.33a55.18,55.18,0,0,1,8.21,2.59l.46.19c18.69,7.34,62.86,32.31,86.48,109,21.62,70.16,37,97.29,44.19,107.13A35.1,35.1,0,0,0,6234.82,2452.36Z"/><path class="cls-18" d="M6235.42,2452.9h0Z"/><path class="cls-18" d="M6320.54,2214.16a1.54,1.54,0,0,0,.08.19A1.24,1.24,0,0,1,6320.54,2214.16Z"/><path class="cls-18" d="M6295.67,2344.65c-52.65,69.5-61.25,81.2-61.5,81.54v0c.38-1.45,12.78-48.65,43.84-100.77,30.2-50.67,45.71-97.91,43-109.85,0-.11-.07-.21-.09-.32a4.66,4.66,0,0,0-.3-.87C6322.3,2218,6347.42,2276.35,6295.67,2344.65Z"/><path class="cls-19" d="M6229.47,3005.41a31.55,31.55,0,0,1-1.73-3c-.52-.94-.84-1.78-1.23-2.66l-1.14-2.61c-.34-.87-.63-1.73-.95-2.59-.59-1.72-1.29-3.45-1.8-5.17l-1.52-5.17-.75-2.58c-.25-.87-.43-1.73-.64-2.59l-1.23-5.18c-.38-1.73-.86-3.45-1.17-5.18l-1-5.18-1-5.19c-.32-1.73-.66-3.46-.87-5.19l-1.48-10.39-.74-5.2-.53-5.2-1.06-10.4-.53-5.2-.36-5.2-.69-10.41c-.22-3.47-.5-6.93-.66-10.4l-.36-10.4-.36-10.4c-.11-3.47-.28-6.94-.25-10.4l-.11-20.78c.06-55.41,3.62-110.62,8.62-165.63,2.32-27.54,5.23-54.93,7.7-82.41s4.93-54.93,6.87-82.43c.46-6.87,1-13.75,1.4-20.62l1.12-20.64c.5-13.76,1.07-27.54.47-41.28,0-3.44-.35-6.86-.63-10.28s-.76-6.83-1.19-10.24-1.14-6.77-1.77-10.16-1.32-6.77-1.91-10.18c-2.46-13.6-3.55-27.39-4.38-41.15,1.12,13.75,2.48,27.49,5.22,41,.65,3.37,1.37,6.75,2.11,10.12s1.41,6.76,2,10.17,1.14,6.83,1.41,10.29.74,6.89.85,10.34c.88,13.82.59,27.65.38,41.46l-.7,20.7c-.22,6.9-.66,13.78-1,20.68-1.37,27.57-3.25,55.11-5.18,82.64s-4.26,55-6,82.53c-3.85,55-6.27,110.05-5.2,165l.53,20.59c.05,3.43.29,6.85.46,10.27l.57,10.27.56,10.27c.24,3.42.58,6.82.86,10.23l.89,10.22.46,5.11.62,5.08,1.25,10.16.63,5.08.82,5,1.64,10.06c.24,1.69.6,3.34.95,5l1,5,1,5c.33,1.65.82,3.25,1.22,4.88l1.25,4.87c.22.8.41,1.63.65,2.42l.75,2.36,1.49,4.73c.49,1.58,1.14,3,1.7,4.56.29.75.56,1.52.87,2.26l1,2.1a18.86,18.86,0,0,0,1,2c.3.56.75,1.4.81,1.46a6.81,6.81,0,1,1-10.39,8.82,5.3,5.3,0,0,1-.46-.6Z"/><path class="cls-18" d="M6236,2292.89c-9.15,71.17-4.77,103.67-4.33,106.72a1.85,1.85,0,0,1,0,.23s-26.2-38-24.06-126.21c1.84-75.71-10.1-102.61-13.53-108.72-.1-.18-.2-.33-.28-.48l-.2-.32a4.68,4.68,0,0,0-.32-.49.35.35,0,0,0-.07-.11C6195.05,2165.41,6245.42,2219.35,6236,2292.89Z"/><path class="cls-20" d="M6439.6,2687.27c-.2,11.55-23.62,130.47-227.27,208,0,0,200.16-119.21,226.48-207.09.11-.31.19-.64.29-.95Z"/><path class="cls-20" d="M6218.81,2910.42c-2-1-128.73-61.69-153.45-88.23-25.77-27.67-49.09-70.79-69.14-101.41C6098.52,2836.1,6216.8,2909.18,6218.81,2910.42Z"/><path class="cls-20" d="M6471.93,2586.43s-37.09,28.49-44.4,42.25c-13.9,26.2-60.6,56.86-113.91,80.76-33,14.75-50.11,26.73-103.73,94.62a1.55,1.55,0,0,0,.08-.15c2.78-4.48,60.46-96.76,116-117.5,56.92-21.25,91.49-65.6,93.94-68S6445.73,2591.84,6471.93,2586.43Z"/><path class="cls-20" d="M6215.63,2831.75c-31.55-45.46-98.93-80.21-117.66-92s-42.78-40.65-63.1-74.34-91.46-47.06-91.46-47.06,72.46,2.09,87.48,27.59,60.76,73,96.38,89.39S6209.36,2819.9,6215.63,2831.75Z"/><path class="cls-20" d="M6465.5,2429.38c-1.6,36.37-35.82,117.12-106.95,150.81-70,33.16-140,101.58-142.21,103.7a.14.14,0,0,1,.06-.08c.27-.37,1.06-1.41,2.31-3,12.34-15.86,70.18-87.37,125.42-109.58C6406.39,2546.21,6462.93,2461.78,6465.5,2429.38Z"/><path class="cls-20" d="M6417.69,2388c-2.12,4.81-36.66,82.27-66.19,120.1-30.24,38.74-126.31,95.36-127.82,96.24,1.11-1.15,49.45-51.13,80.06-75.74C6334.64,2503.79,6396,2434.18,6417.69,2388Z"/><path class="cls-20" d="M6218.84,2708.43s-29.94,16-138.25-106.29c-72.59-81.95-111.36-106.67-128.74-114.1,70.25,26.89,96.48,51.41,117.34,80.17,87.57,120.76,147.31,139.3,149.6,140.19Z"/><path class="cls-18" d="M6230.07,2527.38l1.22-.16-1.41,1.41S6229.93,2528.2,6230.07,2527.38Z"/><path class="cls-20" d="M6324.79,2434c-22.75,23-83.25,83.07-93.44,93.18,1.18-2.24,39.43-74.37,79.85-101,41-27,71.59-91.67,81.26-146.18a.15.15,0,0,0,0-.06C6394.07,2343.06,6349.67,2408.84,6324.79,2434Z"/><path class="cls-20" d="M6295.67,2344.65c-52.65,69.5-61.25,81.2-61.5,81.54v0c1-1.91,34.44-68.65,62.57-106,27.86-37,30.56-85.25,24.27-104.65,0-.11-.07-.21-.09-.32-.12-.37-.26-.72-.38-1.06a1.54,1.54,0,0,0,.08.19C6322.3,2218,6347.42,2276.35,6295.67,2344.65Z"/><path class="cls-20" d="M6236,2292.89c-9.15,71.17-4.77,103.67-4.33,106.72-14.13-77.47-6.32-104.75-1.76-138.23,4.14-30.52-29.72-86.73-35.79-96.47-.1-.18-.2-.33-.28-.48a3.19,3.19,0,0,1-.2-.32l-.32-.49a.35.35,0,0,0-.07-.11C6195.05,2165.41,6245.42,2219.35,6236,2292.89Z"/><path class="cls-20" d="M6226.3,2615.54c-2.89-.49-96.2-16.75-164.11-109.41-69-94.13-35.31-101.62-91.46-159.37l.05,0c1.88,1.51,56.62,45.63,117.86,166.81C6088.64,2513.59,6140,2588.85,6226.3,2615.54Z"/><path class="cls-20" d="M6231.18,2539.8c-3.8-1.6-85.28-36.5-123.41-111.18-39-76.43-52.39-112.79-74.83-131h0c1.9,1.34,57,40.78,92.46,126.78,36.14,87.52,105.67,115.23,105.67,115.23Z"/><path class="cls-20" d="M6235.42,2452.9h0s0,0,0,0l0,0s0,0,0,0a.22.22,0,0,1-.06,0,1.5,1.5,0,0,0-.13-.11l-.13-.12a.91.91,0,0,1-.17-.17c-6-5.27-53.42-48.14-84.92-118.15-33.65-74.78-44.9-99.95-58.25-105.33,0,0,0,0,0,0a34.26,34.26,0,0,1,8.25,2.61l.46.19c13.69,6.08,40.3,24.83,56.73,81.53,18.93,65.33,60.28,118.29,73.94,134.57C6233.56,2450.83,6235.15,2452.6,6235.42,2452.9Z"/><path class="cls-16" d="M6302.38,3102.77H6137a20.21,20.21,0,0,1-20.09-18L6101,2938a20.21,20.21,0,0,1,20.09-22.41h197.32a20.23,20.23,0,0,1,20.1,22.41l-16,146.72A20.22,20.22,0,0,1,6302.38,3102.77Z"/><rect class="cls-17" x="6079.52" y="2915.61" width="282.84" height="50.27" rx="12.51"/><rect class="cls-17" x="1972.26" y="1723.87" width="367.12" height="176.68" rx="83.78"/><path class="cls-17" d="M2186.36,1900.55l51.33,40.09a3.55,3.55,0,0,0,5.46-4.17l-15.05-35.92Z"/><circle class="cls-12" cx="2236.89" cy="1808.72" r="25.08"/><circle class="cls-12" cx="2157.93" cy="1812.21" r="25.08"/><circle class="cls-12" cx="2078.97" cy="1815.69" r="25.08"/><path class="cls-12" d="M1565.63,2285.46h393.24v115.66h-133v694H1698.63v-694h-133Z"/><path class="cls-12" d="M2141.6,3095.08H2014.37V2285.46H2141.6v347h144.57v-347h129.54v809.62H2286.17v-347H2141.6Z"/><path class="cls-12" d="M2920,3095.08H2791.59l-22-146.88H2613.48l-22,146.88H2474.68l129.54-809.62h186.22Zm-290.3-256.76h122.6L2691,2428.88Z"/><path class="cls-12" d="M3092.31,2508.69v586.39H2977.8V2285.46h159.61l130.7,484.62V2285.46h113.35v809.62h-130.7Z"/><path class="cls-12" d="M3639.36,2772.39l-39.32,74v248.66H3472.81V2285.46H3600v352.77l166.55-352.77h127.22l-177,360.86,177,448.76H3763.12Z"/><path class="cls-12" d="M4250,2826.75l-160.77-541.29h133l97.16,369,97.15-369H4538l-160.76,541.29v268.33H4250Z"/><path class="cls-12" d="M4561.15,2479.77c0-129.54,68.24-203.56,193.15-203.56s193.16,74,193.16,203.56v421c0,129.53-68.24,203.56-193.16,203.56s-193.15-74-193.15-203.56Zm127.23,429.1c0,57.83,25.44,79.81,65.92,79.81s65.93-22,65.93-79.81V2471.68c0-57.83-25.44-79.81-65.93-79.81s-65.92,22-65.92,79.81Z"/><path class="cls-12" d="M5151,2285.46V2910c0,57.83,25.45,78.65,65.93,78.65s65.93-20.82,65.93-78.65V2285.46h120.28v616.47c0,129.54-64.77,203.56-189.68,203.56s-189.68-74-189.68-203.56V2285.46Z"/><path class="cls-21" d="M3274.58,3072.16s25.54,7.27,40.55-4.67c0,0,23.15,24.27,48,26.1,0,0,4.28,4.6,0,5.52s-53,2.75-62.17-4c0,0-14.64,6-26.34-1.22C3268.16,3089.92,3274.58,3072.16,3274.58,3072.16Z"/><path class="cls-21" d="M3201.11,3070.8s-24.88,7.08-39.5-4.55c0,0-22.55,23.64-46.72,25.43,0,0-4.17,4.47,0,5.37s51.61,2.68,60.56-3.88c0,0,14.26,5.87,25.66-1.19C3207.36,3088.1,3201.11,3070.8,3201.11,3070.8Z"/><path class="cls-22" d="M3172.8,2732.05,3159,3068s27.67,12.95,42.25,3l9.07-141,28.79-128.13,48.58,125.83-13.81,144.84s34.35,7.25,44.49-5.05l16.42-149.27a34.3,34.3,0,0,0-.73-11.6l-38.53-162.56S3207.53,2758.91,3172.8,2732.05Z"/><path class="cls-23" d="M3245.28,2495.75a24,24,0,0,0,14.82-5.57l-1.58,40.35h-38.36l-5-47.38A39.4,39.4,0,0,0,3245.28,2495.75Z"/><path class="cls-24" d="M3261.34,2458.41l-1.09,27.91a19.94,19.94,0,0,1-15.94,7.23c-16,0-25.23-10.61-30.56-23.14l-1.47-13.78Z"/><path class="cls-23" d="M3260.25,2486.32a19.94,19.94,0,0,1-15.94,7.23c-16,0-25.23-10.61-30.56-23.14-7.69-18-7.27-40.07-7.27-40.07l6.61-6.28,12.31-11.68,40.94-5a226.94,226.94,0,0,1,3.68,37.51C3270.13,2460.48,3268.06,2477.1,3260.25,2486.32Z"/><path class="cls-25" d="M3260.25,2486.32l-.15,3.86a24,24,0,0,1-14.82,5.57,39.4,39.4,0,0,1-30.17-12.6l-1.36-12.74c5.33,12.53,14.57,23.14,30.56,23.14A19.94,19.94,0,0,0,3260.25,2486.32Z"/><path class="cls-23" d="M3260.25,2486.32a19.94,19.94,0,0,1-15.94,7.23c-16,0-25.23-10.61-30.56-23.14-7.69-18-7.27-40.07-7.27-40.07l6.61-6.28,56.93,20.8C3270.13,2460.48,3268.06,2477.1,3260.25,2486.32Z"/><path class="cls-26" d="M3213.9,2424.3s48.24,13.38,67.58-20c0,0-31.52-13.21-48.94-13.21s-27.43,18.79-27.43,18.79-24,14.5,9.09,64.81Z"/><ellipse class="cls-23" cx="3210.31" cy="2445.33" rx="6.68" ry="10.85" transform="translate(-822.48 2295.95) rotate(-35.18)"/><path class="cls-27" d="M3217,2501l-9.18,10.62-35,9.69v222.75s67.42,21.15,122.72,0V2522.41l-29.09-8.59-6.33-10.14-21.85,20.94Z"/><path class="cls-27" d="M3375.31,2636.59l-23.94,18.78s-6.21,4.43-10.65,0-45.2-62.75-45.2-62.75v-70.21s6.33,3.92,23.11,31.51,34.35,55.32,34.35,55.32l8.5-4.85A77.33,77.33,0,0,0,3375.31,2636.59Z"/><path class="cls-27" d="M3172.8,2521.31v65.21s-46.56,35.05-47.39,60.17c-.15,4.27,1.22,9,3.59,13.85-12.6,6-20.67,12.27-25.86,17.82l-.37-.48c-22.35-29.26-11.87-53.82-11.87-53.82C3111.6,2574.38,3172.8,2521.31,3172.8,2521.31Z"/><path class="cls-23" d="M3461.52,2551.65s3.47,21-7.58,32.1c0,0-8.38,3.87-16.61,4.2l-62,48.64a77.33,77.33,0,0,1-13.83-32.2l57.3-32.73s8.39-35,32.42-26.3c0,0,32-21.69,35-18.7S3461.52,2551.65,3461.52,2551.65Z"/><path class="cls-23" d="M3189.16,2753.46c-14.09,2.81-25.95-18.17-25.95-18.17s-37.67-27.85-60.07-56.93c5.19-5.55,13.26-11.85,25.86-17.82,11.55,23.8,46.91,51.56,46.91,51.56l17.94,8.56C3211.8,2729.21,3203.25,2750.66,3189.16,2753.46Z"/><polygon class="cls-28" points="3236.57 2522.75 3221.39 2537.41 3207.83 2511.62 3217.01 2501 3236.57 2522.75"/><polygon class="cls-28" points="3239.92 2523.02 3253.14 2539 3266.43 2513.82 3260.09 2503.68 3239.92 2523.02"/><ellipse class="cls-20" cx="3245.17" cy="3097.87" rx="149.71" ry="8.17"/><path class="cls-29" d="M4912.85,2979.39c-8.88,11-21.39,12.59-26.76,12.74-6.65-14.07-14.14-30.45-20.4-45.49-3-7.33-5.81-14.33-8-20.6a150.22,150.22,0,0,1-4.45-14.37c-7.81-32.2-10.25-147.81-10.25-147.81l-23.41,120.48,1.48,40.81.84,23.13,1.79,49.21a40.16,40.16,0,0,1-32.54,1.74c-1.41-15.32-3-33.25-4.42-51-.47-5.9-.93-11.8-1.36-17.57-1.88-25.46-3.19-48.56-2.87-60.46,1-35.61,23.42-143.41,25.46-174.63.64-9.74-1.4-26-4.52-44l79.52,4c1.91,22,3,37.6,3,37.6,30.73,63.9,2.43,165.36.49,195.61-.38,5.91,1.23,15,4.08,25.76,1.62,6.13,3.64,12.82,5.92,19.78C4901.17,2948.91,4907.1,2964.79,4912.85,2979.39Z"/><path class="cls-30" d="M4755.35,2448.45s-6.92-47.76,54.34-47.76c0,0,39.11,1.38,39.11,42.57s7.27,63,26.3,76.14,26.31,52.61-28,46-50.31-1.84-60.79,4.5c-23.82,14.41-17.19-1.2-22.07-20.92-1.56-6.31-11.41-16.12-9.1-25.81s11.31-24.57,8.89-34.26S4754,2464.78,4755.35,2448.45Z"/><path class="cls-31" d="M4895.83,2734.85,4967.4,2703s13.21,12.25,9.64,35.77L4905.61,2773Z"/><ellipse class="cls-32" cx="4900.72" cy="2753.9" rx="4.63" ry="19.67" transform="translate(-530.96 1305.51) rotate(-14.4)"/><path class="cls-23" d="M4825.88,3059s-4.88,14.14-37.56,29.76-51.71,2.43-51.71,2.43c32.19-15.12,58.54-49.75,58.54-49.75s-1.8-17.8-4-42.19a40.16,40.16,0,0,0,32.54-1.74Z"/><path class="cls-23" d="M4774.88,2422.24c23.63-18.21,44.17-2.76,53.44,2.6s7.44,76,11.7,85.37c6.1,13.32,25.29,17.37,25.29,17.37,7.92,27.25,14.17,88.1,17.61,128l-79.52-4c-6.88-39.81-19-88.43-19-95.48,0-10.24,20.88-30.64,20.88-30.64l1.7-32.63c-6.91,4.7-18.48,2.38-18.48,2.38C4760.19,2469.81,4774.88,2422.24,4774.88,2422.24Z"/><path class="cls-23" d="M4934.66,3031.66c-13.17,62-54.15,61.46-54.15,61.46,18.54-19.51,22.93-65.36,22.93-65.36s-7.82-15.45-17.35-35.63c5.37-.15,17.88-1.73,26.76-12.74C4924.1,3008,4934.66,3031.66,4934.66,3031.66Z"/><path class="cls-30" d="M4771,2418.22s12.59,34.63,42.84,24.83l25.77,37.94s9.56-20.45,4-38.81S4818.59,2388.32,4771,2418.22Z"/><ellipse class="cls-23" cx="4819.69" cy="2448.47" rx="11.59" ry="7.48" transform="translate(289.41 5398.21) rotate(-60)"/><path class="cls-23" d="M4852,2572.54s-15.9-37.39,23.5-39.49c0,0,53,83.79,55.07,89.15s13.52,50.83,14,91.39c0,0,7.93,18.19,6.3,25.18s-11.76,25-22.85,26.35c-6.29.76,1.63-27.28,1.63-27.28s-14.69,12.59-13.29,7.93,11.89-27.05,11.89-27.05-6.76-75.3-16.55-87.43S4852,2572.54,4852,2572.54Z"/><path class="cls-23" d="M4781.14,2555.29s-11.66,14.22-2.1,66.21,10.26,58.52,8.86,65.75-19.35,63.88-19.35,63.88-29.84,33.34-4.9,44.77,24.8-39.87,24.8-39.87,23.46-63,23-70.65-7-106.54-14.22-114.24S4781.14,2555.29,4781.14,2555.29Z"/><path class="cls-33" d="M4805.3,2525.42s-6,26.16,6.71,23.42,28.14-38.35,28.14-38.35,6.47,12.2,28.64,16.68a40.56,40.56,0,0,1,15.07,19.11,55.4,55.4,0,0,0-27.28,33.69l26.65,23.15s14.44,55.78,11.21,70.23-42.25,45.57-86.25,21.66c0,0-6.14-4.23-6.39-18.18s-21.91-63.5-23.41-93.63l-7.36-7s1.39-23.16,13.84-33.87S4805.3,2525.42,4805.3,2525.42Z"/><path class="cls-29" d="M4895.17,3066.12s18.91,14.8,37.53-38.92l11.76,26.4-4.26,2.75-8.91-8.75s-18.8,55.4-48.44,47.71c0,0-7-2.47-1.78-9S4895.17,3066.12,4895.17,3066.12Z"/><path class="cls-29" d="M4761.13,3075.62s25.57,18.57,64.59-20.93c0,0,.61,24.57-2.27,39.52,0,0-4.81,2.34-6.86,1l-2.47-19.35s-45.14,33.48-72.58,23.87c0,0-17-5.76,1.37-14.4S4761.13,3075.62,4761.13,3075.62Z"/><ellipse class="cls-20" cx="4849.91" cy="3097.87" rx="149.71" ry="8.17"/><path class="cls-34" d="M2318.74,2228.13s-96.18,71.07-86,104.19,62.91,133.31,62.91,133.31l27.29-7.09s-45.25-87.35-10.46-117.42,65.93-47.06,65.93-47.06,69.83,37.59,70.67,56.11-33.93,94.41-33.93,94.41l23.51,14.66s72.83-109.07,59.64-135.9-66.93-79.6-66.93-79.6S2364.62,2254.63,2318.74,2228.13Z"/><path class="cls-35" d="M2387.85,2038.16s-115.5,3.45-101.33,123.06l40.51,3.93-4.69,68s52.06,25.5,109.06,10.59l9-116,12.45,41.21,38.24-18.51s-23-74.2-37-86S2387.85,2038.16,2387.85,2038.16Z"/><polygon class="cls-36" points="2366.1 2014.49 2361.08 2066.23 2405.99 2070.59 2410.86 2020.39 2366.1 2014.49"/><path class="cls-37" d="M2359.67,2009.52s-9.54-11.76-4.12-36.93c0,0,7.94-47.28,54.57-21.15,0,0,10.54,8.48,23.17,8.77s1.1,40.52-18.22,45.72Z"/><path class="cls-38" d="M2421.9,1989.46c-4.16,42.8-19.61,58-36.69,56.37s-29.33-19.39-25.16-62.37c2.18-22.43,16.77-28.73,33.85-27.07S2424.08,1967,2421.9,1989.46Z"/><path class="cls-37" d="M2359.91,1968.3s6.8,16.11,67.1,14.69l2.2-13.23-19.92-13.93-24.06-4.88-17.5,6.11Z"/><path class="cls-39" d="M2363.42,2042.1s6.75,21.46,20,26.3l-17.59,20.07s-8.94-21-4.93-45.86Z"/><path class="cls-39" d="M2408.53,2044.43s-11.07,21.78-25,24l13,23s14.24-20.39,14.1-46.3Z"/><path class="cls-38" d="M2286.52,2161.22s6.11,96.32,47.57,131.53c0,0,27.93,9.47,19.52-20.93l-13.07-14.2s-24.39-28-13.51-92.47Z"/><path class="cls-38" d="M2452.89,2168.93s51.2,97.64,73.62,104.37,46.92,5.9,45.43-1-42.05-19.16-42.05-19.16l-38.76-102.77Z"/><path class="cls-40" d="M2323,2458.54s7.46,12.93,6.06,15.8-54.05,46.88-56.06,40.47,22.71-49.18,22.71-49.18Z"/><path class="cls-40" d="M2415.18,2444.58s-16.87,13.9-8.85,24.28,45,42.57,50.33,41.77-18-51.39-18-51.39Z"/><rect class="cls-41" x="2365.76" y="1112.37" width="116.32" height="113.27" rx="21.05"/><rect class="cls-42" x="2416.94" width="13.96" height="1112.37"/><polygon class="cls-43" points="2202.7 1397.49 1772.98 2689.98 3054.25 2695.18 2645.23 1397.49 2202.7 1397.49"/><path class="cls-4" d="M2645.18,1397.79H2202.65c0-122.2,99.07-221.27,221.27-221.27S2645.18,1275.59,2645.18,1397.79Z"/><rect class="cls-41" x="3456.39" y="1112.37" width="116.32" height="113.27" rx="21.05"/><rect class="cls-42" x="3507.57" width="13.96" height="1112.37"/><polygon class="cls-44" points="3293.52 1397.49 2863.8 2689.98 4145.07 2695.18 3736.05 1397.49 3293.52 1397.49"/><path class="cls-4" d="M3735.82,1397.79H3293.29c0-122.2,99.06-221.27,221.26-221.27S3735.82,1275.59,3735.82,1397.79Z"/><rect class="cls-41" x="4517.92" y="1112.37" width="116.32" height="113.27" rx="21.05"/><rect class="cls-42" x="4569.1" width="13.96" height="1112.37"/><polygon class="cls-45" points="4355.23 1397.49 3925.52 2689.98 5206.79 2695.18 4797.76 1397.49 4355.23 1397.49"/><path class="cls-4" d="M4797.35,1397.79H4354.82c0-122.2,99.06-221.27,221.26-221.27S4797.35,1275.59,4797.35,1397.79Z"/></g></svg>